<?xml version='1.0' encoding='utf-8'?>
<svg xmlns:xlink="http://www.w3.org/1999/xlink" xmlns="http://www.w3.org/2000/svg" width="210mm" height="297mm" viewBox="0 0 210 297" version="1.1" id="svg5"> <defs id="defs2"> <linearGradient id="linearGradient12289"> <stop style="stop-color:#fed6d6;stop-opacity:1;" offset="0" id="stop12285"/> <stop style="stop-color:#ffaaaa;stop-opacity:1" offset="1" id="stop12287"/> </linearGradient> <linearGradient id="linearGradient5012"> <stop style="stop-color:#ff3636;stop-opacity:1;" offset="0" id="stop5008"/> <stop style="stop-color:#ff0000;stop-opacity:1" offset="1" id="stop5010"/> </linearGradient> <linearGradient id="linearGradient4142"> <stop style="stop-color:#00b900;stop-opacity:1;" offset="0" id="stop4138"/> <stop style="stop-color:#008000;stop-opacity:1" offset="1" id="stop4140"/> </linearGradient> <linearGradient id="linearGradient17596"> <stop style="stop-color:#c95e18;stop-opacity:1;" offset="0" id="stop17594"/> <stop style="stop-color:#aa4400;stop-opacity:1" offset="1" id="stop17592"/> </linearGradient> <radialGradient xlink:href="#linearGradient17596" id="radialGradient18977" cx="104.75187" cy="123.31492" fx="104.75187" fy="123.31492" r="87.446945" gradientTransform="matrix(1.1568067,0,0,1.3885597,-2.7135274,-31.455852)" gradientUnits="userSpaceOnUse"/> <radialGradient xlink:href="#linearGradient4142" id="radialGradient4144" cx="118.46413" cy="131.12623" fx="118.46413" fy="131.12623" r="9.692735" gradientUnits="userSpaceOnUse" gradientTransform="translate(-6.7349639e-7,-4.7549261)"/> <radialGradient xlink:href="#linearGradient4142" id="radialGradient4276" cx="118.46413" cy="186.72229" fx="118.46413" fy="186.72229" r="9.6927347" gradientUnits="userSpaceOnUse" gradientTransform="translate(-6.7349639e-7,-5.4864532)"/> <radialGradient xlink:href="#linearGradient5012" id="radialGradient5014" cx="118.46413" cy="158.5585" fx="118.46413" fy="158.5585" r="9.692735" gradientUnits="userSpaceOnUse" gradientTransform="translate(-6.7349639e-7,-5.1206897)"/> <radialGradient xlink:href="#linearGradient12289" id="radialGradient12291" cx="118.69025" cy="71.506767" fx="118.69025" fy="71.506767" r="7.1323891" gradientUnits="userSpaceOnUse" gradientTransform="matrix(0.69230769,0,0,0.69230769,36.520076,22.002083)"/> <filter style="color-interpolation-filters:sRGB" id="filter7072" x="-0.12267109" y="-0.16943437" width="1.2453422" height="1.3388687"> <feGaussianBlur stdDeviation="2.085915" id="feGaussianBlur7074"/> </filter> <filter style="color-interpolation-filters:sRGB" id="filter7076" x="-0.12340463" y="-0.17593151" width="1.2468093" height="1.351863"> <feGaussianBlur stdDeviation="2.2060555" id="feGaussianBlur7078"/> </filter> <filter style="color-interpolation-filters:sRGB" id="filter17995" x="-0.38246795" y="-0.07842621" width="1.7649359" height="1.1568524"> <feGaussianBlur stdDeviation="2.886381" id="feGaussianBlur17997"/> </filter> <filter style="color-interpolation-filters:sRGB" id="filter18689" x="-0.10390956" y="-0.020484301" width="1.2078191" height="1.0409686"> <feGaussianBlur stdDeviation="0.72667642" id="feGaussianBlur18691"/> </filter> <filter style="color-interpolation-filters:sRGB;" id="filter21975" x="-0.071921428" y="-0.057351994" width="1.1276751" height="1.1038003"> <feFlood flood-opacity="0.329412" flood-color="rgb(0,0,0)" result="flood" id="feFlood21965"/> <feComposite in="flood" in2="SourceGraphic" operator="in" result="composite1" id="feComposite21967"/> <feGaussianBlur in="composite1" stdDeviation="4.7" result="blur" id="feGaussianBlur21969"/> <feOffset dx="-3.27103" dy="-2.64798" result="offset" id="feOffset21971"/> <feComposite in="SourceGraphic" in2="offset" operator="over" result="composite2" id="feComposite21973"/> </filter> </defs> <g id="layer1"> <g id="g26372" transform="matrix(0.57480314,0,0,0.57480314,126.97178,15.909276)"> <g id="g26370"> <g id="g26388" transform="matrix(0.80821917,0,0,1.0410959,-11.21842,-1.6083577)"/> </g> </g> <rect style="fill:#ffffff;fill-opacity:1;stroke-width:1;paint-order:markers stroke fill;stop-color:#000000" id="rect36438" width="0" height="114.11823" x="-200.80418" y="-12.435961"/> <g id="g20616" transform="translate(8.4125616,-16.825123)"> <g id="g22577" transform="translate(0.73152709,4.7549261)"> <g id="g20536" transform="matrix(0.91264479,0,0,0.91264479,-11.290049,49.883647)" style="filter:url(#filter21975)"> <path id="path345" style="fill:url(#radialGradient18977);fill-opacity:1;stroke-width:1.1568;paint-order:markers stroke fill;stop-color:#000000" d="m 120.24205,18.348973 c -26.214852,5.2e-5 -47.466176,21.251378 -47.466227,47.466231 0.01145,7.778096 1.934152,15.434199 5.598962,22.294816 -15.907162,0.273605 -32.778944,9.17002 -49.230193,27.19284 -10.736411,11.76205 -15.143832,27.58223 -9.127291,35.98229 l 0.841099,1.17407 c 6.016549,8.40007 20.9067,7.19774 33.386332,-2.69546 L 74.34743,133.8277 c -1.128384,28.69319 -15.114282,49.22163 -16.752582,65.24351 -3.599585,35.20242 12.643878,52.69882 23.28291,59.26792 10.639032,6.56909 18.42419,-0.67169 25.702852,-14.82057 19.31457,-52.87147 5.78277,-42.8695 23.36787,0.42324 5.73614,14.08872 15.06382,21.38967 25.70285,14.82057 10.63903,-6.5691 26.37482,-23.08324 24.55286,-58.42229 C 179.23346,176.03754 160.2013,154.4641 163.2513,134.4804 l 19.68351,15.28336 c 12.47963,9.8932 27.37038,11.09552 33.38693,2.69546 l 0.8405,-1.17407 c 6.01654,-8.40006 0.29928,-23.04518 -9.55041,-35.55918 -11.74616,-13.67543 -28.40001,-26.119214 -45.73979,-27.167603 3.81937,-6.972661 5.8262,-14.792974 5.83629,-22.743163 -5e-5,-26.214854 -21.25137,-47.46618 -47.46623,-47.466231 z"/> <path id="path4884" style="opacity:0.887417;fill:#5f2700;fill-opacity:0.67451;stroke:none;stroke-width:0.264583px;stroke-linecap:butt;stroke-linejoin:miter;stroke-opacity:1;filter:url(#filter7076)" d="m 68.676945,89.330465 c -12.97502,3.004432 -26.387838,11.572245 -39.532471,25.972575 -1.210408,1.32604 -2.327713,2.70896 -3.37137,4.12171 0.004,-8.1e-4 0.0094,-0.002 0.01344,-0.003 6.225113,-1.24502 24.530824,-16.83508 30.723706,-21.214208 2.869633,-2.029179 8.464476,-5.409297 12.166699,-8.876977 z"/> <path id="path7064" style="opacity:0.516556;fill:#ffffff;fill-opacity:1;stroke:none;stroke-width:0.272581px;stroke-linecap:butt;stroke-linejoin:miter;stroke-opacity:1;filter:url(#filter7072)" d="m 169.42325,89.724239 c 3.82362,3.640838 9.8058,7.218227 12.84108,9.346716 5.41067,3.794255 19.75895,15.791575 27.96883,20.199805 -0.83865,-1.1943 -1.70525,-2.38086 -2.62154,-3.54501 -10.02797,-11.67502 -23.63344,-22.446035 -38.18837,-26.001511 z"/> <path id="path9896" style="opacity:1;fill:#4a1f01;fill-opacity:1;stroke-width:0.222785;stroke-linecap:round;stroke-linejoin:round;stroke-opacity:0.976471;paint-order:markers stroke fill;stop-color:#000000" d="m 79.520728,113.09697 1.286226,3.16725 -3.318661,0.81907 3.409611,-0.24494 -0.246496,3.40961 0.820622,-3.31815 3.166731,1.28778 -2.902148,-1.80609 2.203483,-2.61328 -2.614827,2.20193 z"/> <path id="path9899" style="opacity:1;fill:#4a1f01;fill-opacity:1;stroke-width:0.222785;stroke-linecap:round;stroke-linejoin:round;stroke-opacity:0.976471;paint-order:markers stroke fill;stop-color:#000000" d="m 89.599699,141.1888 1.46296,3.08973 -3.267501,1.00459 3.390491,-0.43615 -0.05426,3.41788 0.633037,-3.35897 3.233911,1.10743 -2.9993,-1.63969 2.052588,-2.73369 -2.48667,2.3456 z"/> <path id="path9902" style="opacity:1;fill:#4a1f01;fill-opacity:1;stroke-width:0.222785;stroke-linecap:round;stroke-linejoin:round;stroke-opacity:0.976471;paint-order:markers stroke fill;stop-color:#000000" d="m 94.530664,172.53779 1.48363,3.0794 -3.260266,1.02732 3.38739,-0.45992 -0.02997,3.4184 0.609265,-3.36362 3.241663,1.08521 -3.010669,-1.61903 2.033468,-2.74763 -2.470134,2.36316 z"/> <path id="path9905" style="opacity:1;fill:#4a1f01;fill-opacity:1;stroke-width:0.222785;stroke-linecap:round;stroke-linejoin:round;stroke-opacity:0.976471;paint-order:markers stroke fill;stop-color:#000000" d="m 68.165865,178.51107 1.379244,3.12797 -3.292822,0.91674 3.400826,-0.3452 -0.145728,3.4153 0.722437,-3.34088 3.203422,1.19372 -2.954342,-1.71979 2.124935,-2.67735 -2.548165,2.27841 z"/> <path id="path9908" style="opacity:1;fill:#4a1f01;fill-opacity:1;stroke-width:0.222785;stroke-linecap:round;stroke-linejoin:round;stroke-opacity:0.976471;paint-order:markers stroke fill;stop-color:#000000" d="m 106.7387,203.44701 1.34307,3.144 -3.30367,0.8785 3.40496,-0.30593 -0.18552,3.41323 0.7612,-3.3321 3.18947,1.23094 -2.93419,-1.7539 2.15594,-2.65255 -2.57452,2.24844 z"/> <path id="path9911" style="opacity:1;fill:#4a1f01;fill-opacity:1;stroke-width:0.222785;stroke-linecap:round;stroke-linejoin:round;stroke-opacity:0.976471;paint-order:markers stroke fill;stop-color:#000000" d="m 73.946908,204.70895 1.311547,3.1564 -3.311942,0.84646 3.407544,-0.27234 -0.218592,3.41116 0.79375,-3.32486 3.177068,1.26194 -2.916618,-1.78232 2.181779,-2.63136 -2.596741,2.22312 z"/> <path id="path9914" style="opacity:1;fill:#4a1f01;fill-opacity:1;stroke-width:0.222785;stroke-linecap:round;stroke-linejoin:round;stroke-opacity:0.976471;paint-order:markers stroke fill;stop-color:#000000" d="m 146.92385,213.3477 1.56889,3.03702 -3.23029,1.11777 3.37292,-0.55398 0.0646,3.41788 0.51573,-3.37912 3.2706,0.99477 -3.05408,-1.53479 1.95647,-2.80344 -2.40347,2.43086 z"/> <path id="path9917" style="opacity:1;fill:#4a1f01;fill-opacity:1;stroke-width:0.222785;stroke-linecap:round;stroke-linejoin:round;stroke-opacity:0.976471;paint-order:markers stroke fill;stop-color:#000000" d="m 167.25491,195.44595 1.29759,3.16208 -3.31556,0.83148 3.40858,-0.25684 -0.23409,3.41013 0.80873,-3.32124 3.17138,1.27641 -2.90886,-1.79576 2.19418,-2.62103 -2.60656,2.21124 z"/> <path id="path9920" style="opacity:1;fill:#4a1f01;fill-opacity:1;stroke-width:0.222785;stroke-linecap:round;stroke-linejoin:round;stroke-opacity:0.976471;paint-order:markers stroke fill;stop-color:#000000" d="m 146.15955,171.18128 1.29553,3.16363 -3.31607,0.82838 3.40857,-0.25425 -0.23668,3.41013 0.81132,-3.32073 3.17035,1.27899 -2.90731,-1.79782 2.19573,-2.62 -2.60811,2.20969 z"/> <path id="path9923" style="opacity:1;fill:#4a1f01;fill-opacity:1;stroke-width:0.222785;stroke-linecap:round;stroke-linejoin:round;stroke-opacity:0.976471;paint-order:markers stroke fill;stop-color:#000000" d="m 134.28534,140.79089 1.572,3.03547 -3.22978,1.12086 3.37292,-0.55707 0.0682,3.41788 0.51211,-3.37964 3.27164,0.99116 -3.05615,-1.53169 1.95389,-2.805 -2.40089,2.43344 z"/> <path id="path9926" style="opacity:1;fill:#4a1f01;fill-opacity:1;stroke-width:0.222785;stroke-linecap:round;stroke-linejoin:round;stroke-opacity:0.976471;paint-order:markers stroke fill;stop-color:#000000" d="m 191.87666,119.23097 0.80564,1.75803 -1.18391,-1.65055 1.49293,3.07527 -0.65061,0.20722 -2.31923,0.68213 0.27595,-0.032 -0.56379,0.17932 3.38636,-0.46923 -0.0207,3.4184 0.26097,-1.46451 -0.0393,1.39061 0.6444,-3.20342 2.97811,0.98754 -0.48007,-0.25632 0.75189,0.26769 -2.97914,-1.67639 2.08617,-2.70784 -1.11931,1.03043 0.75138,-1.02113 -2.24638,2.16111 z"/> <path id="path9932" style="opacity:1;fill:#4a1f01;fill-opacity:1;stroke-width:0.222785;stroke-linecap:round;stroke-linejoin:round;stroke-opacity:0.976471;paint-order:markers stroke fill;stop-color:#000000" d="m 159.50344,112.07481 1.45676,3.09232 -3.26905,0.99891 3.39101,-0.43047 -0.0599,3.41788 0.63872,-3.35793 3.23185,1.11362 -2.9962,-1.64537 2.05775,-2.73007 -2.4908,2.34146 z"/> <path id="path11399" style="opacity:1;fill:#4a1f01;fill-opacity:1;stroke-width:0.134759;stroke-linecap:round;stroke-linejoin:round;stroke-opacity:0.976471;paint-order:markers stroke fill;stop-color:#000000" d="m 59.784981,107.5216 0.759127,1.9234 -2.01228,0.47594 2.063957,-0.12764 -0.169499,2.06034 0.516247,-2.00195 1.907894,0.79789 -1.744596,-1.11001 1.348238,-1.56735 -1.594735,1.3162 z"/> <path id="path11402" style="opacity:1;fill:#4a1f01;fill-opacity:1;stroke-width:0.134759;stroke-linecap:round;stroke-linejoin:round;stroke-opacity:0.976471;paint-order:markers stroke fill;stop-color:#000000" d="m 97.566138,119.00979 0.943095,1.84071 -1.95647,0.66921 2.041219,-0.32814 0.03256,2.06757 0.318844,-2.04277 1.976104,0.60824 -1.844329,-0.93483 1.189069,-1.69137 -1.45882,1.46554 z"/> <path id="path11405" style="opacity:1;fill:#4a1f01;fill-opacity:1;stroke-width:0.134759;stroke-linecap:round;stroke-linejoin:round;stroke-opacity:0.976471;paint-order:markers stroke fill;stop-color:#000000" d="m 139.75529,122.59924 0.76068,1.92288 -2.01228,0.47697 2.06396,-0.12919 -0.16795,2.06085 0.5147,-2.00246 1.90841,0.79634 -1.74563,-1.10846 1.3472,-1.56838 -1.5937,1.31723 z m 7.15151,2.53989 0.85576,1.88206 -1.98541,0.57722 2.05465,-0.23202 -0.0646,2.06654 0.41393,-2.02572 1.94561,0.70022 -1.79834,-1.0201 1.26711,-1.63401 -1.52601,1.39578 z"/> <g id="g20457"> <path id="path2277" style="fill:#5f2700;fill-opacity:0.67451;stroke:none;stroke-width:0.264583px;stroke-linecap:butt;stroke-linejoin:miter;stroke-opacity:1" d="m 120.24227,18.348751 c -17.7359,3.5e-5 -33.189614,9.7345 -41.337526,24.145296 0.351534,0.07596 0.748004,0.117306 1.197343,0.117306 3.874462,0 10.32442,-8.179597 15.179436,-10.607105 1.085023,-0.542514 2.395788,3.108854 4.937687,3.108854 2.23407,0 5.22935,-3.400536 6.58357,-4.754748 0.31483,-0.314836 3.79598,5.120617 4.3894,5.120617 3.23489,0 4.8223,-5.6923 7.8636,-4.388879 2.24352,0.961506 2.11117,4.483165 4.57233,5.303552 3.59518,1.198392 5.52858,-5.120617 9.32708,-5.120617 2.31715,0 5.92615,4.883113 8.96121,6.400642 2.28121,1.140604 3.98224,-4.31832 5.66942,-3.474723 4.59453,2.297261 6.95599,10.433999 14.00018,8.306987 C 153.43986,28.08864 137.98302,18.348785 120.24227,18.348751 Z"/> <g id="g4882"> <g id="g4855"> <g id="g3710" transform="matrix(0.93421052,0,0,0.93421052,2.5651571,5.4527648)"> <g id="g26354" transform="matrix(0.46456693,0,0,0.59842519,120.5234,14.984787)"> <path id="path26342" style="fill:#ffffff;paint-order:markers stroke fill;stop-color:#000000" d="M -15.36207,62.362686 A 23.225985,23.225985 0 0 1 -38.588055,85.588671 23.225985,23.225985 0 0 1 -61.814039,62.362686 23.225985,23.225985 0 0 1 -38.588055,39.136702 23.225985,23.225985 0 0 1 -15.36207,62.362686 Z"/> <path id="path26344" style="fill:#3737c8;stroke-width:0.811023;paint-order:markers stroke fill;stop-color:#000000" d="M -19.751233,62.362686 A 18.836822,18.836822 0 0 1 -38.588055,81.199508 18.836822,18.836822 0 0 1 -57.424876,62.362686 18.836822,18.836822 0 0 1 -38.588055,43.525865 18.836822,18.836822 0 0 1 -19.751233,62.362686 Z"/> <path id="path26346" style="fill:#11002b;stroke-width:0.637795;paint-order:markers stroke fill;stop-color:#000000" d="M -23.774632,62.362686 A 14.813423,14.813423 0 0 1 -38.588055,77.176109 14.813423,14.813423 0 0 1 -53.401477,62.362686 14.813423,14.813423 0 0 1 -38.588055,47.549264 14.813423,14.813423 0 0 1 -23.774632,62.362686 Z"/> <path id="path26348" style="fill:#ffffff;stroke-width:0.338582;paint-order:markers stroke fill;stop-color:#000000" d="m -26.70074,66.751849 a 7.8639154,7.8639154 0 0 1 -7.863916,7.863916 7.8639154,7.8639154 0 0 1 -7.863915,-7.863916 7.8639154,7.8639154 0 0 1 7.863915,-7.863915 7.8639154,7.8639154 0 0 1 7.863916,7.863915 z"/> <path id="path26350" style="fill:#ffffff;stroke-width:0.181102;paint-order:markers stroke fill;stop-color:#000000" d="m -37.307883,51.38978 a 4.20628,4.20628 0 0 1 -4.206281,4.206281 4.20628,4.20628 0 0 1 -4.20628,-4.206281 4.20628,4.20628 0 0 1 4.20628,-4.20628 4.20628,4.20628 0 0 1 4.206281,4.20628 z"/> <path id="path26352" style="fill:#ffffff;stroke-width:0.125984;paint-order:markers stroke fill;stop-color:#000000" d="m -46.451971,56.693352 a 2.9261077,2.9261077 0 0 1 -2.926108,2.926108 2.9261077,2.9261077 0 0 1 -2.926108,-2.926108 2.9261077,2.9261077 0 0 1 2.926108,-2.926108 2.9261077,2.9261077 0 0 1 2.926108,2.926108 z"/> </g> <g id="g26368" transform="matrix(0.46456693,0,0,0.59842519,120.5234,14.984787)"> <path id="path26356" style="fill:#ffffff;paint-order:markers stroke fill;stop-color:#000000" d="M -15.36207,62.362686 A 23.225985,23.225985 0 0 1 -38.588055,85.588671 23.225985,23.225985 0 0 1 -61.814039,62.362686 23.225985,23.225985 0 0 1 -38.588055,39.136702 23.225985,23.225985 0 0 1 -15.36207,62.362686 Z"/> <path id="path26358" style="fill:#0cba54;fill-opacity:1;stroke-width:0.811023;paint-order:markers stroke fill;stop-color:#000000" d="M -19.751233,62.362686 A 18.836822,18.836822 0 0 1 -38.588055,81.199508 18.836822,18.836822 0 0 1 -57.424876,62.362686 18.836822,18.836822 0 0 1 -38.588055,43.525865 18.836822,18.836822 0 0 1 -19.751233,62.362686 Z"/> <path id="path26360" style="fill:#11002b;stroke-width:0.637795;paint-order:markers stroke fill;stop-color:#000000" d="M -23.774632,62.362686 A 14.813423,14.813423 0 0 1 -38.588055,77.176109 14.813423,14.813423 0 0 1 -53.401477,62.362686 14.813423,14.813423 0 0 1 -38.588055,47.549264 14.813423,14.813423 0 0 1 -23.774632,62.362686 Z"/> <path id="path26362" style="fill:#ffffff;stroke-width:0.338582;paint-order:markers stroke fill;stop-color:#000000" d="m -26.70074,66.751849 a 7.8639154,7.8639154 0 0 1 -7.863916,7.863916 7.8639154,7.8639154 0 0 1 -7.863915,-7.863916 7.8639154,7.8639154 0 0 1 7.863915,-7.863915 7.8639154,7.8639154 0 0 1 7.863916,7.863915 z"/> <path id="path26364" style="fill:#ffffff;stroke-width:0.181102;paint-order:markers stroke fill;stop-color:#000000" d="m -37.307883,51.38978 a 4.20628,4.20628 0 0 1 -4.206281,4.206281 4.20628,4.20628 0 0 1 -4.20628,-4.206281 4.20628,4.20628 0 0 1 4.20628,-4.20628 4.20628,4.20628 0 0 1 4.206281,4.20628 z"/> <path id="path26366" style="fill:#ffffff;stroke-width:0.125984;paint-order:markers stroke fill;stop-color:#000000" d="m -46.451971,56.693352 a 2.9261077,2.9261077 0 0 1 -2.926108,2.926108 2.9261077,2.9261077 0 0 1 -2.926108,-2.926108 2.9261077,2.9261077 0 0 1 2.926108,-2.926108 2.9261077,2.9261077 0 0 1 2.926108,2.926108 z"/> </g> </g> <g id="g27146" transform="matrix(-0.53698714,0,0,0.53698714,118.36751,20.315377)"> <path id="path27116" style="fill:#ffffff;stroke-width:0.917297;paint-order:markers stroke fill;stop-color:#000000" d="M -19.816369,63.317179 A 18.771686,24.180478 0 0 1 -38.588055,87.497657 18.771686,24.180478 0 0 1 -57.359741,63.317179 18.771686,24.180478 0 0 1 -38.588055,39.136702 18.771686,24.180478 0 0 1 -19.816369,63.317179 Z"/> <path id="path27118" style="fill:#0cba54;fill-opacity:1;stroke-width:0.743949;paint-order:markers stroke fill;stop-color:#000000" d="m -23.363775,63.317179 a 15.224281,19.610938 0 0 1 -15.22428,19.610938 15.224281,19.610938 0 0 1 -15.22428,-19.610938 15.224281,19.610938 0 0 1 15.22428,-19.610937 15.224281,19.610938 0 0 1 15.22428,19.610937 z"/> <path id="path27120" style="fill:#11002b;stroke-width:0.585047;paint-order:markers stroke fill;stop-color:#000000" d="M -26.615563,63.317179 A 11.972492,15.422194 0 0 1 -38.588055,78.739373 11.972492,15.422194 0 0 1 -50.560547,63.317179 11.972492,15.422194 0 0 1 -38.588055,47.894986 11.972492,15.422194 0 0 1 -26.615563,63.317179 Z"/> <path id="path27122" style="fill:#ffffff;stroke-width:0.31058;paint-order:markers stroke fill;stop-color:#000000" d="m -28.980499,67.886719 a 6.3557672,8.1870901 0 0 1 -6.355768,8.18709 6.3557672,8.1870901 0 0 1 -6.355767,-8.18709 6.3557672,8.1870901 0 0 1 6.355767,-8.18709 6.3557672,8.1870901 0 0 1 6.355768,8.18709 z"/> <path id="path27124" style="fill:#ffffff;stroke-width:0.166124;paint-order:markers stroke fill;stop-color:#000000" d="m -37.553396,51.893332 a 3.3995961,4.3791409 0 0 1 -3.399597,4.379141 3.3995961,4.3791409 0 0 1 -3.399596,-4.379141 3.3995961,4.3791409 0 0 1 3.399596,-4.379141 3.3995961,4.3791409 0 0 1 3.399597,4.379141 z"/> <path id="path27126" style="fill:#ffffff;stroke-width:0.115565;paint-order:markers stroke fill;stop-color:#000000" d="m -44.943823,57.414859 a 2.3649363,3.0463587 0 0 1 -2.364936,3.046359 2.3649363,3.0463587 0 0 1 -2.364937,-3.046359 2.3649363,3.0463587 0 0 1 2.364937,-3.046359 2.3649363,3.0463587 0 0 1 2.364936,3.046359 z"/> </g> </g> <circle style="fill:url(#radialGradient12291);fill-opacity:1;stroke:none;stroke-width:0.692308;stroke-opacity:1;paint-order:markers stroke fill;stop-color:#000000" id="path12179" cx="118.69025" cy="71.506767" r="4.9378076"/> <path id="path3329" style="fill:#12100f;fill-opacity:0.972696;stroke:none;stroke-width:1.35572;stroke-linecap:round;stroke-linejoin:round;stroke-opacity:0.976471;paint-order:markers stroke fill;stop-color:#000000" d="m 118.23381,89.214906 c 6.65806,-8.9e-5 12.27667,-4.952491 11.74302,-5.267757 -0.53365,-0.315266 -6.5025,4.123503 -11.7421,4.123592 -5.2357,-0.0053 -11.19813,-4.443247 -11.73176,-4.128211 -0.53364,0.315053 5.07767,5.265845 11.73084,5.272376 z"/> </g> <g id="g20410"> <path id="path3332" style="fill:url(#radialGradient4144);fill-opacity:1;stroke-width:0.768116;paint-order:markers stroke fill;stop-color:#000000" d="m 128.15687,126.3713 a 9.6927351,9.6927351 0 0 1 -9.69274,9.69274 9.6927351,9.6927351 0 0 1 -9.69273,-9.69274 9.6927351,9.6927351 0 0 1 9.69273,-9.69273 9.6927351,9.6927351 0 0 1 9.69274,9.69273 z"/> <path id="path3335" style="fill:url(#radialGradient5014);fill-opacity:1;stroke-width:0.768116;paint-order:markers stroke fill;stop-color:#000000" d="m 128.15687,153.43781 a 9.6927351,9.6927351 0 0 1 -9.69274,9.69274 9.6927351,9.6927351 0 0 1 -9.69273,-9.69274 9.6927351,9.6927351 0 0 1 9.69273,-9.69273 9.6927351,9.6927351 0 0 1 9.69274,9.69273 z"/> <path id="path3337" style="fill:url(#radialGradient4276);fill-opacity:1;stroke-width:0.768116;paint-order:markers stroke fill;stop-color:#000000" d="m 128.15687,181.23584 a 9.6927351,9.6927351 0 0 1 -9.69274,9.69274 9.6927351,9.6927351 0 0 1 -9.69273,-9.69274 9.6927351,9.6927351 0 0 1 9.69273,-9.69273 9.6927351,9.6927351 0 0 1 9.69274,9.69273 z"/> <path id="path3339" style="fill:#ff0000;fill-opacity:1;stroke-width:1.08711;paint-order:markers stroke fill;stop-color:#000000" d="m 226.15357,166.38323 c -1.91752,0.0411 -3.84843,0.20529 -5.79138,0.49764 -0.34425,1.00743 -0.58418,2.01588 -0.69401,2.88045 -0.35549,2.79821 0.84812,5.81403 2.99981,7.04556 2.33162,1.33453 5.90628,-2.19323 8.26513,-1.16375 2.41419,1.05364 2.23537,6.18509 4.87516,6.99389 2.28371,0.69971 4.82525,-3.0738 7.0497,-2.57349 2.39089,0.53777 2.95184,5.16678 5.46064,5.67873 2.38407,0.48645 4.64146,-3.23378 6.94635,-2.90939 2.36499,0.33285 3.00494,4.76653 5.51027,4.95332 2.28068,0.17004 3.59749,-3.35104 6.23641,-3.67934 2.63892,-0.3283 5.43573,4.28549 8.12136,3.9655 2.43835,-0.29055 3.22393,-4.856 5.50871,-5.31441 2.3351,-0.46851 4.69035,3.41581 7.11171,2.89543 2.42134,-0.52038 2.98229,-4.93842 5.27874,-5.56348 2.3855,-0.6493 5.27281,3.08527 7.68584,2.21227 2.29614,-0.83072 2.15307,-5.37897 4.31292,-6.31125 2.18507,-0.94317 5.32995,2.28382 7.55354,1.25626 2.24965,-1.0396 4.02642,-3.69184 3.93929,-6.55102 -0.0273,-0.89742 -0.19963,-1.95637 -0.49402,-3.01687 -1.98572,-0.42141 -3.98689,-0.70669 -5.99809,-0.8382 -0.26905,0.84065 -0.68247,1.52475 -1.43867,1.74563 -2.18906,0.63943 -5.10997,-2.31966 -7.12618,-1.44229 -1.99292,0.86724 -1.7431,5.37807 -3.85609,6.15157 -2.22059,0.81289 -4.97714,-2.95751 -7.15202,-2.35955 -2.09372,0.57565 -2.5138,4.9634 -4.71548,5.44256 -2.20165,0.47917 -4.40529,-3.43016 -6.50399,-2.99465 -2.05345,0.42613 -2.70748,4.97633 -4.89893,5.24206 -2.41368,0.2927 -5.03233,-4.33578 -7.36718,-4.01265 -2.33486,0.32313 -3.47468,3.8565 -5.50644,3.70944 -2.23189,-0.16155 -2.69452,-4.5743 -4.79972,-4.86908 -2.05169,-0.28728 -4.14943,3.46083 -6.29315,3.02358 -2.25594,-0.46008 -2.649,-5.04917 -4.80178,-5.52162 -2.00289,-0.43956 -4.43177,3.36929 -6.50554,2.74143 -2.39713,-0.72575 -2.06518,-5.79812 -4.25297,-6.75307 -2.13766,-0.93309 -5.57677,2.66003 -7.70289,1.4366 -0.57738,-0.33223 -0.82659,-1.09775 -0.95705,-1.99781 z" transform="translate(-147.96506,-78.267162)" class="UnoptimicedTransforms"/> <g id="g19657"> <path id="path40875" style="fill:#ffffff;stroke-width:0.53269;paint-order:markers stroke fill;stop-color:#000000" d="m 208.41725,120.42159 c -0.2686,0.008 -0.51143,0.084 -0.71262,0.2682 -1.08986,0.99812 0.83691,3.47148 -0.293,4.42402 -1.02893,0.86741 -2.97463,-1.27129 -4.01578,-0.41858 -1.04832,0.85858 0.62321,3.14079 -0.38395,4.0473 -0.97247,0.87528 -2.95931,-0.92429 -3.92483,-0.0413 -0.98261,0.89858 0.66102,3.07557 -0.31419,3.98218 -0.9752,0.90661 -3.03195,-0.89668 -3.99459,0.0233 -1.05186,1.00521 0.8733,3.40374 -0.22376,4.35942 -1.03063,0.8978 -3.04214,-1.237 -4.08502,-0.35346 -1.01594,0.8607 0.66101,3.07557 -0.31419,3.98218 -0.97521,0.90661 -3.02592,-0.89034 -3.99459,0.0233 -1.01346,0.95583 0.76678,3.23888 -0.26872,4.1708 -1.00179,0.90158 -3.03182,-1.05921 -4.04006,-0.16485 -0.9907,0.8788 0.64192,3.0512 -0.29972,3.96669 l 1.38234,1.07332 c 1.02675,0.81395 2.07125,1.56298 3.12436,2.25877 -0.12651,-0.98517 -0.64414,-2.15958 0.0217,-2.75022 1.00824,-0.89436 3.03828,1.06695 4.04006,0.16537 1.03551,-0.93192 -0.74476,-3.21498 0.26872,-4.17081 0.96868,-0.91358 3.01937,0.88335 3.99459,-0.0232 0.97522,-0.9066 -0.70175,-3.12148 0.31419,-3.98219 1.04288,-0.88354 3.05491,1.25127 4.08554,0.35347 1.09707,-0.95568 -0.82863,-3.35423 0.22324,-4.35943 0.96265,-0.91993 3.01937,0.88335 3.99459,-0.0232 0.97522,-0.9066 -0.66841,-3.0836 0.3142,-3.98219 0.9655,-0.88294 2.95235,0.91662 3.92482,0.0413 1.00716,-0.90651 -0.66436,-3.18872 0.38396,-4.0473 1.04115,-0.85271 2.98684,1.28599 4.01577,0.41858 1.12992,-0.95254 -0.79686,-3.4259 0.29301,-4.42402 0.51747,-0.47392 1.31056,-0.23011 2.10891,0.0341 -0.79171,-1.40797 -1.66128,-2.81348 -2.5833,-4.20956 -0.88748,0.0989 -2.11706,-0.67045 -3.04168,-0.64182 z"/> <path id="path3399" style="fill:#ff0000;stroke-width:0.53269;paint-order:markers stroke fill;stop-color:#000000" d="m 212.60769,124.96705 c -0.2686,0.008 -0.51142,0.084 -0.71261,0.2682 -1.08986,0.99812 0.8369,3.47148 -0.29301,4.42402 -1.02893,0.86741 -2.97463,-1.27129 -4.01577,-0.41858 -1.04832,0.85858 0.6232,3.14079 -0.38396,4.0473 -0.97247,0.87528 -2.95931,-0.92433 -3.92483,-0.0413 -0.9826,0.89858 0.66102,3.07557 -0.31419,3.98218 -0.9752,0.90661 -3.03195,-0.89672 -3.99459,0.0233 -1.05186,1.00521 0.8733,3.40374 -0.22376,4.35942 -1.03062,0.8978 -3.04214,-1.237 -4.08502,-0.35347 -1.01594,0.8607 0.66101,3.07558 -0.31419,3.98219 -0.97521,0.90661 -3.02592,-0.89038 -3.99459,0.0232 -1.01346,0.95583 0.76678,3.23889 -0.26872,4.17081 -1.00178,0.90158 -3.03182,-1.05921 -4.04006,-0.16485 -0.66031,0.58573 -0.15733,1.74502 -0.0258,2.7249 1.30954,0.86742 2.6338,1.64619 3.96255,2.32906 0.0461,-0.19378 0.13515,-0.36629 0.29197,-0.5054 1.00824,-0.89436 3.03829,1.06694 4.04007,0.16537 1.03551,-0.93192 -0.74476,-3.21498 0.26871,-4.17081 0.96868,-0.91358 3.01937,0.8834 3.99459,-0.0232 0.97522,-0.9066 -0.70174,-3.12148 0.3142,-3.98219 1.04287,-0.88354 3.05491,1.25127 4.08553,0.35347 1.09707,-0.95568 -0.82862,-3.35423 0.22325,-4.35943 0.96265,-0.91993 3.01937,0.8833 3.99458,-0.0233 0.97522,-0.9066 -0.66841,-3.0836 0.3142,-3.98219 0.9655,-0.88294 2.95235,0.91666 3.92482,0.0413 1.00716,-0.9065 -0.66436,-3.18871 0.38396,-4.04729 1.04115,-0.85271 2.98684,1.28598 4.01577,0.41858 1.12992,-0.95254 -0.79686,-3.4259 0.29301,-4.42402 0.047,-0.043 0.097,-0.0784 0.14831,-0.11007 -0.66194,-1.45675 -1.39901,-2.92326 -2.22364,-4.39043 -0.50279,-0.16633 -1.00558,-0.33025 -1.44074,-0.31678 z"/> </g> <g id="g20387"> <path id="path41603" style="fill:#ffffff;stroke-width:0.573883;paint-order:markers stroke fill;stop-color:#000000" d="m 178.41598,224.40542 c -1.07192,0.21543 -0.97449,3.19891 -2.27118,3.45716 -1.58554,0.31577 -2.56836,-2.73334 -4.16563,-2.48357 -1.55012,0.2424 -1.55512,3.34776 -3.11351,3.5295 -1.46876,0.17128 -2.15038,-2.712 -3.62148,-2.56212 -1.43723,0.14642 -1.53121,2.95533 -2.96055,3.16518 -1.44047,0.21149 -2.33572,-2.42095 -3.77444,-2.1978 -1.39953,0.21707 -1.45421,2.92188 -2.85202,3.14968 -1.4655,0.23883 -2.42152,-2.44136 -3.88349,-2.18178 -1.51749,0.26944 -1.4772,3.31088 -3.00498,3.514 -1.4924,0.19842 -2.23495,-2.72385 -3.73001,-2.54661 -1.40641,0.16673 -1.45421,2.92187 -2.85202,3.14967 -1.4655,0.23883 -2.41979,-2.43142 -3.88348,-2.18177 -1.45754,0.2486 -1.46535,3.11499 -2.92799,3.33158 -1.47765,0.2188 -2.32777,-2.57209 -3.807,-2.3642 -1.40247,0.1971 -1.45421,2.92188 -2.85203,3.14968 -1.16381,0.18966 -2.16866,-1.84418 -3.13624,-2.25516 0.84862,2.56548 1.81596,5.30292 2.93316,8.2181 0.45535,0.1686 0.92634,0.2387 1.38906,0.1633 1.39782,-0.22779 1.44904,-2.95258 2.8515,-3.14968 1.47923,-0.20789 2.32935,2.58301 3.80701,2.3642 1.46264,-0.21659 1.47043,-3.083 2.92798,-3.33158 1.4637,-0.24963 2.41799,2.42059 3.88349,2.18178 1.39782,-0.22778 1.44561,-2.98244 2.85202,-3.14917 1.49506,-0.17724 2.23761,2.74451 3.73,2.5461 1.52779,-0.20312 1.48749,-3.24458 3.00499,-3.514 1.46197,-0.25956 2.41798,2.42112 3.88348,2.1823 1.39782,-0.22779 1.45199,-2.93261 2.85151,-3.14968 1.43872,-0.22315 2.33448,2.40929 3.77496,2.1978 1.42935,-0.20985 1.52332,-3.01928 2.96054,-3.1657 1.47109,-0.14987 2.15274,2.73392 3.62149,2.56264 1.5584,-0.18174 1.56339,-3.28762 3.1135,-3.53002 1.01454,-0.15865 1.78158,1.01198 2.61225,1.80764 1.02872,-2.72918 1.92085,-5.69384 2.63911,-8.90747 z"/> <path id="path3409" style="fill:#008000;stroke-width:0.573883;paint-order:markers stroke fill;stop-color:#000000" d="m 173.31604,231.27064 c -0.0488,0.002 -0.0984,0.006 -0.14832,0.014 -1.55011,0.2424 -1.55511,3.34776 -3.1135,3.5295 -1.46876,0.17128 -2.15039,-2.712 -3.62148,-2.56212 -1.43723,0.14642 -1.53121,2.95534 -2.96055,3.16518 -1.44047,0.21149 -2.33573,-2.42094 -3.77444,-2.19779 -1.39953,0.21707 -1.45422,2.92188 -2.85203,3.14967 -1.4655,0.23883 -2.42151,-2.44135 -3.88348,-2.18177 -1.51749,0.26944 -1.47721,3.31087 -3.00498,3.51399 -1.4924,0.19842 -2.23495,-2.72385 -3.73001,-2.54661 -1.40641,0.16673 -1.45421,2.92188 -2.85202,3.14968 -1.4655,0.23883 -2.4198,-2.43143 -3.88349,-2.18178 -1.45753,0.2486 -1.46534,3.11499 -2.92798,3.33158 -1.47765,0.2188 -2.32778,-2.57209 -3.80701,-2.3642 -1.40246,0.1971 -1.4542,2.92188 -2.85202,3.14968 -0.65194,0.10624 -1.25268,-0.48606 -1.82624,-1.09916 0.58505,1.55657 1.19768,3.14567 1.87017,4.80126 0.34078,0.837 0.69578,1.64636 1.06143,2.43396 0.0269,-0.003 0.0538,-0.005 0.0806,-0.01 1.39781,-0.22779 1.44904,-2.95258 2.8515,-3.14968 1.47923,-0.20789 2.32935,2.58301 3.807,2.3642 1.46264,-0.21659 1.47044,-3.083 2.92799,-3.33158 1.4637,-0.24963 2.41799,2.42059 3.88349,2.18178 1.39781,-0.22778 1.44561,-2.98243 2.85202,-3.14916 1.49506,-0.17724 2.23761,2.7445 3.73,2.54609 1.52779,-0.20312 1.48749,-3.24457 3.00499,-3.51399 1.46197,-0.25956 2.41798,2.42111 3.88348,2.18229 1.39782,-0.22779 1.45199,-2.93261 2.85151,-3.14968 1.43871,-0.22315 2.33448,2.40929 3.77496,2.1978 1.42935,-0.20985 1.52332,-3.01928 2.96054,-3.1657 1.47109,-0.14987 2.15274,2.73392 3.62149,2.56264 1.43037,-0.16681 1.55315,-2.79529 2.7621,-3.41375 0.64991,-1.38918 1.26533,-2.84649 1.83813,-4.37957 -0.81284,-0.75692 -1.558,-1.90791 -2.52387,-1.87689 z"/> </g> <g id="g20391"> <path id="path41605" style="fill:#ffffff;stroke-width:0.573883;paint-order:markers stroke fill;stop-color:#000000" d="m 58.727681,224.83899 c 0.638287,2.93894 1.446244,5.66502 2.3766,8.20208 0.730347,-0.76365 1.437222,-1.67706 2.340425,-1.53582 1.550117,0.2424 1.555112,3.34828 3.113505,3.53002 1.468751,0.17128 2.150395,-2.71251 3.621485,-2.56264 1.437229,0.14642 1.531196,2.95585 2.960542,3.1657 1.440483,0.21149 2.336242,-2.42095 3.774964,-2.1978 1.399523,0.21707 1.453686,2.92189 2.851505,3.14968 1.465502,0.23882 2.421514,-2.44186 3.883484,-2.1823 1.517499,0.26942 1.477198,3.31088 3.004985,3.514 1.492394,0.19841 2.234949,-2.72334 3.730005,-2.5461 1.406411,0.16673 1.4542,2.92138 2.852022,3.14917 1.465503,0.23881 2.419786,-2.43142 3.883484,-2.18178 1.457546,0.24858 1.465343,3.11499 2.927983,3.33158 1.47766,0.21881 2.32777,-2.57209 3.80701,-2.3642 1.40247,0.1971 1.4542,2.92189 2.85202,3.14968 0.3285,0.0535 0.66078,0.0307 0.98909,-0.0455 1.0275,-2.87196 1.91524,-5.45474 2.74918,-7.92665 -0.79072,0.72507 -1.62076,1.99778 -2.55281,1.84589 -1.39782,-0.2278 -1.44955,-2.95258 -2.85203,-3.14968 -1.47922,-0.20789 -2.32935,2.583 -3.807,2.3642 -1.46264,-0.21659 -1.470445,-3.08298 -2.927986,-3.33158 -1.463698,-0.24965 -2.417981,2.4206 -3.883484,2.18177 -1.397812,-0.22779 -1.445618,-2.98294 -2.852022,-3.14967 -1.495059,-0.17725 -2.237608,2.74503 -3.730005,2.54661 -1.527782,-0.20312 -1.487493,-3.24456 -3.004984,-3.514 -1.461966,-0.25957 -2.417986,2.42061 -3.883484,2.18178 -1.397817,-0.2278 -1.451982,-2.93261 -2.851506,-3.14968 -1.43872,-0.22314 -2.334484,2.40929 -3.774963,2.1978 -1.429341,-0.20985 -1.523318,-3.01875 -2.960543,-3.16518 -1.471094,-0.14987 -2.152729,2.7334 -3.621484,2.56212 -1.558392,-0.18174 -1.563391,-3.2871 -3.113505,-3.5295 -1.597272,-0.24978 -2.580091,2.79933 -4.165638,2.48357 -1.030751,-0.20528 -1.180664,-2.13277 -1.736845,-3.02359 z"/> <path id="path3414" style="fill:#008000;stroke-width:0.573883;paint-order:markers stroke fill;stop-color:#000000" d="m 63.318099,231.37812 c -0.851715,-0.0273 -1.531939,0.86509 -2.238106,1.59577 0.7272,1.99052 1.531882,3.85989 2.397269,5.61465 0.155537,0.28323 0.297253,0.59138 0.441317,0.89452 0.141794,0.2748 0.289445,0.53721 0.434082,0.80615 0.266719,0.40534 0.588422,0.70625 1.041797,0.75913 1.46875,0.17128 2.150396,-2.71251 3.621484,-2.56264 1.437228,0.14642 1.531199,2.95585 2.960543,3.1657 1.440482,0.21149 2.336243,-2.42095 3.774964,-2.1978 1.399521,0.21707 1.453687,2.92189 2.851505,3.14968 1.465501,0.23882 2.421515,-2.44186 3.883484,-2.1823 1.517497,0.26942 1.477199,3.31088 3.004985,3.514 1.492392,0.19841 2.23495,-2.72334 3.730004,-2.5461 1.40641,0.16673 1.454202,2.92138 2.852023,3.14917 1.465501,0.23881 2.419787,-2.43142 3.883484,-2.18178 1.457544,0.24858 1.465348,3.11499 2.927986,3.33158 1.47766,0.21881 2.32776,-2.57209 3.807,-2.3642 1.23357,0.17336 1.42219,2.30199 2.40089,2.96726 0.49862,-0.8932 0.99453,-1.81365 1.48776,-2.77244 0.45623,-1.24888 0.87718,-2.42894 1.2976,-3.60805 -0.3675,0.30388 -0.74862,0.50188 -1.14877,0.43667 -1.39782,-0.2278 -1.44954,-2.95258 -2.85202,-3.14968 -1.47922,-0.20789 -2.32935,2.58299 -3.807,2.36419 -1.462644,-0.21658 -1.47045,-3.08298 -2.927989,-3.33157 -1.463697,-0.24965 -2.417982,2.4206 -3.883484,2.18177 -1.397811,-0.22779 -1.44562,-2.98294 -2.852022,-3.14967 -1.495058,-0.17725 -2.23761,2.74503 -3.730005,2.54661 -1.527781,-0.20312 -1.487495,-3.24456 -3.004985,-3.514 -1.461964,-0.25957 -2.417987,2.42061 -3.883484,2.18178 -1.397815,-0.2278 -1.451982,-2.93261 -2.851505,-3.14968 -1.438719,-0.22314 -2.334486,2.40929 -3.774963,2.1978 -1.42934,-0.20985 -1.52332,-3.01875 -2.960543,-3.16518 -1.471093,-0.14987 -2.152731,2.7334 -3.621485,2.56212 -1.55839,-0.18174 -1.563392,-3.2871 -3.113505,-3.5295 -0.04991,-0.008 -0.09956,-0.0124 -0.148311,-0.014 z"/> </g> <g id="g19653"> <path id="path40147" style="fill:#ffffff;stroke-width:0.53269;paint-order:markers stroke fill;stop-color:#000000" d="m 28.561564,120.42159 c -1.163965,-0.036 -2.811608,1.19522 -3.65094,0.36277 -0.02083,-0.0207 -0.03844,-0.043 -0.05633,-0.0651 -1.100043,1.59047 -2.090346,3.21426 -2.965194,4.85655 1.083587,-0.20822 2.407996,-1.02233 3.156397,-0.33693 1.089866,0.99812 -0.836911,3.47148 0.293005,4.42402 1.028935,0.86742 2.974626,-1.27129 4.015776,-0.41858 1.048315,0.85858 -0.623206,3.14079 0.383955,4.0473 0.972472,0.87527 2.95931,-0.92429 3.924826,-0.0413 0.98261,0.89859 -0.661026,3.07559 0.314192,3.98219 0.975216,0.9066 3.031938,-0.89667 3.994588,0.0232 1.051877,1.0052 -0.873305,3.40375 0.223759,4.35943 1.030628,0.89781 3.042139,-1.23701 4.085022,-0.35347 1.015942,0.86072 -0.661023,3.07559 0.314193,3.98219 0.975216,0.9066 3.02591,-0.89033 3.994588,0.0232 1.013476,0.95583 -0.766788,3.23889 0.268718,4.17081 1.001792,0.90158 3.031819,-1.05973 4.040063,-0.16537 0.698673,0.61976 0.09424,1.88229 0.0062,2.8944 1.126752,-0.7348 2.243208,-1.53319 3.340365,-2.40295 l 1.265039,-1.00304 c -0.02328,-0.0173 -0.04693,-0.0345 -0.06873,-0.0548 -0.975203,-0.90661 0.681913,-3.0986 -0.314192,-3.98219 -1.008241,-0.89436 -3.037757,1.06643 -4.039547,0.16485 -1.035503,-0.93192 0.744228,-3.21497 -0.269234,-4.1708 -0.968666,-0.91359 -3.019384,0.88335 -3.994588,-0.0233 -0.975203,-0.90661 0.701747,-3.12148 -0.314193,-3.98218 -1.042881,-0.88354 -3.054397,1.25126 -4.085022,0.35346 -1.097062,-0.95568 0.828104,-3.35421 -0.223759,-4.35942 -0.962638,-0.91994 -3.019384,0.88335 -3.994588,-0.0233 -0.975205,-0.90661 0.668416,-3.0836 -0.314193,-3.98218 -0.965514,-0.88295 -2.952354,0.91662 -3.924825,0.0413 -1.007162,-0.90651 0.664359,-3.18872 -0.383956,-4.0473 -1.041148,-0.85271 -2.986327,1.28599 -4.015259,0.41858 -1.129913,-0.95254 0.796342,-3.4259 -0.293522,-4.42402 -0.201182,-0.18425 -0.444011,-0.25988 -0.712618,-0.2682 z"/> <path id="path3392" style="fill:#ff0000;stroke-width:0.53269;paint-order:markers stroke fill;stop-color:#000000" d="m 24.492562,124.90194 c -0.772804,-0.0239 -1.758075,0.50838 -2.579171,0.62683 -0.697542,1.30591 -1.334426,2.61867 -1.880505,3.93206 0.360201,-0.0332 0.686354,0.0233 0.943611,0.2589 1.089865,0.99812 -0.836909,3.47148 0.293006,4.42402 1.028934,0.86742 2.974626,-1.27129 4.015775,-0.41858 1.048314,0.85858 -0.623204,3.14079 0.383956,4.0473 0.972471,0.87527 2.95931,-0.92433 3.924825,-0.0413 0.982609,0.89859 -0.661024,3.07558 0.314193,3.98218 0.975215,0.9066 3.031939,-0.89661 3.994588,0.0233 1.051876,1.0052 -0.873304,3.40374 0.223759,4.35942 1.030627,0.89781 3.04214,-1.237 4.085022,-0.35346 1.015941,0.86071 -0.661022,3.07558 0.314193,3.98218 0.975215,0.9066 3.025911,-0.89037 3.994588,0.0233 1.013475,0.95582 -0.766787,3.23888 0.268717,4.1708 1.001791,0.90158 3.031821,-1.05972 4.040064,-0.16536 0.18258,0.16195 0.274537,0.36822 0.311609,0.60203 1.315938,-0.67347 2.627771,-1.4415 3.925342,-2.29599 0.100083,-1.00514 0.681184,-2.24303 -0.0083,-2.8546 -1.00824,-0.89436 -3.037757,1.06642 -4.039546,0.16484 -1.035502,-0.93192 0.744226,-3.21497 -0.269235,-4.1708 -0.968665,-0.91359 -3.019385,0.88288 -3.994588,-0.0238 -0.975202,-0.90661 0.701747,-3.12149 -0.314192,-3.98219 -1.04288,-0.88354 -3.054398,1.25127 -4.085022,0.35347 -1.097061,-0.95568 0.828103,-3.35422 -0.223759,-4.35942 -0.962637,-0.91994 -3.019386,0.88339 -3.994589,-0.0233 -0.975204,-0.90661 0.668416,-3.08361 -0.314192,-3.98219 -0.965513,-0.88294 -2.952355,0.91667 -3.924825,0.0413 -1.007161,-0.90651 0.664358,-3.18872 -0.383956,-4.0473 -1.041147,-0.85271 -2.986328,1.28599 -4.015259,0.41858 -1.129912,-0.95254 0.796341,-3.4259 -0.293522,-4.42402 -0.201182,-0.18425 -0.444011,-0.25988 -0.712618,-0.2682 z"/> <path id="path9935" style="opacity:1;fill:#4a1f01;fill-opacity:1;stroke-width:0.222785;stroke-linecap:round;stroke-linejoin:round;stroke-opacity:0.976471;paint-order:markers stroke fill;stop-color:#000000" d="m 50.520431,121.19105 1.354439,3.13831 -3.300057,0.8909 3.40341,-0.31832 -0.1726,3.41426 0.748792,-3.33571 3.193603,1.21904 -2.940389,-1.74253 2.146123,-2.66082 -2.566252,2.25826 z"/> </g> </g> </g> <path id="path11411" style="opacity:1;fill:#4a1f01;fill-opacity:1;stroke-width:0.134759;stroke-linecap:round;stroke-linejoin:round;stroke-opacity:0.976471;paint-order:markers stroke fill;stop-color:#000000" d="m 178.36379,130.15485 0.86093,1.87998 -1.98386,0.58291 2.05414,-0.23822 -0.0584,2.06705 0.40825,-2.02726 1.94768,0.69453 -1.80195,-1.01493 1.26245,-1.63762 -1.52187,1.39991 z"/> <path id="path11414" style="opacity:1;fill:#4a1f01;fill-opacity:1;stroke-width:0.134759;stroke-linecap:round;stroke-linejoin:round;stroke-opacity:0.976471;paint-order:markers stroke fill;stop-color:#000000" d="m 179.56165,109.9969 0.89142,1.86552 -1.97404,0.61547 2.05,-0.27182 -0.0253,2.06758 0.37517,-2.03347 1.95854,0.66301 -1.81746,-0.98547 1.23507,-1.65778 -1.49862,1.42472 z"/> <path id="path11417" style="opacity:1;fill:#4a1f01;fill-opacity:1;stroke-width:0.134759;stroke-linecap:round;stroke-linejoin:round;stroke-opacity:0.976471;paint-order:markers stroke fill;stop-color:#000000" d="m 140.39298,156.28813 0.97772,1.8216 -1.94303,0.70693 2.0345,-0.3669 0.0718,2.06654 0.27957,-2.04897 1.98747,0.57051 -1.8619,-0.89917 1.15704,-1.71359 -1.43093,1.49293 z"/> <path id="path11420" style="opacity:1;fill:#4a1f01;fill-opacity:1;stroke-width:0.134759;stroke-linecap:round;stroke-linejoin:round;stroke-opacity:0.976471;paint-order:markers stroke fill;stop-color:#000000" d="m 168.72562,168.63829 0.97668,1.82262 -1.94355,0.70539 2.03502,-0.36587 0.0703,2.06654 0.28112,-2.04846 1.98696,0.57155 -1.86139,-0.90021 1.15756,-1.71307 -1.43144,1.4919 z"/> <path id="path15809" style="opacity:0.937086;fill:#fce6d8;fill-opacity:1;stroke:none;stroke-width:0.264583px;stroke-linecap:butt;stroke-linejoin:miter;stroke-opacity:1;filter:url(#filter17995)" d="m 162.35081,135.5416 c -1.80859,18.63551 10.22008,44.08093 11.84993,53.76777 4.39186,26.10264 -0.5291,27.86163 2.73988,32.46779 0.35553,0.50097 -0.15943,1.46395 0.58064,2.09351 1.39434,-6.63472 3.13966,-14.66779 2.68273,-23.53044 -0.91943,-23.01812 -18.02869,-43.58709 -17.24443,-62.6768 -0.26773,-0.80243 -0.47486,-1.51562 -0.60875,-2.12183 z" transform="matrix(1,0,0,1.0284845,0,-3.8336007)"/> <path id="path11423" style="opacity:1;fill:#4a1f01;fill-opacity:1;stroke-width:0.134759;stroke-linecap:round;stroke-linejoin:round;stroke-opacity:0.976471;paint-order:markers stroke fill;stop-color:#000000" d="m 83.427466,194.06826 0.939477,1.84175 -1.957503,0.6661 2.042253,-0.32452 0.02842,2.06757 0.322461,-2.04225 1.975073,0.61185 -1.842782,-0.93793 1.192176,-1.6893 -1.46141,1.46244 z"/> <path id="path11426" style="opacity:1;fill:#4a1f01;fill-opacity:1;stroke-width:0.134759;stroke-linecap:round;stroke-linejoin:round;stroke-opacity:0.976471;paint-order:markers stroke fill;stop-color:#000000" d="m 86.636056,196.2118 0.866097,1.87792 -1.982308,0.58808 2.053621,-0.2434 -0.05374,2.06706 0.403077,-2.0283 1.949751,0.68936 -1.804541,-1.00976 1.258322,-1.64124 -1.518254,1.40405 z"/> <path id="path11429" style="opacity:1;fill:#4a1f01;fill-opacity:1;stroke-width:0.134759;stroke-linecap:round;stroke-linejoin:round;stroke-opacity:0.976471;paint-order:markers stroke fill;stop-color:#000000" d="m 95.069132,215.18583 0.94878,1.8371 -1.954403,0.67593 2.040702,-0.33435 0.03876,2.06706 0.312125,-2.04381 1.978174,0.60203 -1.847432,-0.92862 1.183907,-1.6955 -1.454175,1.47019 z m -3.013769,11.46855 0.929659,1.84692 -1.961121,0.65526 2.043803,-0.31368 0.01705,2.06809 0.33383,-2.0407 1.971973,0.62218 -1.838131,-0.94774 1.201477,-1.68311 -1.469161,1.45521 z"/> <path id="path11435" style="opacity:1;fill:#4a1f01;fill-opacity:1;stroke-width:0.134759;stroke-linecap:round;stroke-linejoin:round;stroke-opacity:0.976471;paint-order:markers stroke fill;stop-color:#000000" d="m 85.098682,158.6575 0.862996,1.87844 -1.983341,0.58549 2.054138,-0.24029 -0.05633,2.06654 0.40566,-2.02727 1.948719,0.69195 -1.802991,-1.01234 1.260388,-1.63918 -1.52032,1.40198 z"/> <path id="path11438" style="opacity:1;fill:#4a1f01;fill-opacity:1;stroke-width:0.134759;stroke-linecap:round;stroke-linejoin:round;stroke-opacity:0.976471;paint-order:markers stroke fill;stop-color:#000000" d="m 149.07876,195.3767 0.78289,1.91358 -2.00659,0.50075 2.0624,-0.15296 -0.14417,2.0624 0.49144,-2.00814 1.91771,0.77411 -1.75855,-1.08831 1.32912,-1.58388 -1.5782,1.33584 z"/> <path id="path11447" style="opacity:1;fill:#4a1f01;fill-opacity:1;stroke-width:0.134759;stroke-linecap:round;stroke-linejoin:round;stroke-opacity:0.976471;paint-order:markers stroke fill;stop-color:#000000" d="m 137.35234,199.60125 0.75913,1.9234 -2.01228,0.47594 2.06395,-0.12816 -0.16898,2.06086 0.51573,-2.00246 1.9079,0.79788 -1.7446,-1.10949 1.34772,-1.56787 -1.59422,1.31672 z"/> <path id="path11450" style="opacity:1;fill:#4a1f01;fill-opacity:1;stroke-width:0.134759;stroke-linecap:round;stroke-linejoin:round;stroke-opacity:0.976471;paint-order:markers stroke fill;stop-color:#000000" d="m 153.26765,144.92294 0.82527,1.89601 -1.99419,0.54518 2.05775,-0.19895 -0.0977,2.0655 0.44649,-2.01899 1.93425,0.7307 -1.78232,-1.04851 1.29294,-1.61334 -1.54771,1.37097 z"/> <path id="path12180" style="opacity:1;fill:#973f03;fill-opacity:1;stroke:none;stroke-width:0.264583px;stroke-linecap:butt;stroke-linejoin:miter;stroke-opacity:1;filter:url(#filter18689)" d="m 73.86991,140.22968 c -2.715057,25.38251 -14.761296,44.03823 -16.274976,58.84137 -1.043079,10.20087 -0.412906,18.90591 1.257288,26.29814 0.61504,-0.5672 1.098733,-1.10659 1.406115,-1.55856 3.176349,-4.67052 -1.778453,-6.33124 2.091346,-32.51636 1.321175,-8.93978 11.583611,-32.82058 11.520227,-51.06459 z"/> </g> </g> </g> </g> </svg>